<svg xmlns="http://www.w3.org/2000/svg" xmlns:xlink="http://www.w3.org/1999/xlink" xmlns:lucid="lucid" width="980" height="640"><g transform="translate(-180 -80)" lucid:page-tab-id="0_0"><path d="M420 246a6 6 0 0 1 6-6h148a6 6 0 0 1 6 6v308a6 6 0 0 1-6 6H426a6 6 0 0 1-6-6z" stroke="#3a414a" fill="#c3f7c8"/><use xlink:href="#a" transform="matrix(1,0,0,1,432,252) translate(33.49382716049383 151.90277777777777)"/><use xlink:href="#b" transform="matrix(1,0,0,1,432,252) translate(59.358024691358025 151.90277777777777)"/><path d="M540 106a6 6 0 0 1 6-6h248a6 6 0 0 1 6 6v108a6 6 0 0 1-6 6H546a6 6 0 0 1-6-6z" stroke="#3a414a" fill="#ced4db"/><use xlink:href="#c" transform="matrix(1,0,0,1,552,112) translate(17.444444444444457 38.77777777777778)"/><use xlink:href="#d" transform="matrix(1,0,0,1,552,112) translate(118.61728395061729 38.77777777777778)"/><use xlink:href="#e" transform="matrix(1,0,0,1,552,112) translate(155.65432098765433 38.77777777777778)"/><use xlink:href="#f" transform="matrix(1,0,0,1,552,112) translate(176.64197530864197 38.77777777777778)"/><use xlink:href="#g" transform="matrix(1,0,0,1,552,112) translate(97.25925925925927 65.44444444444446)"/><path d="M940 106a6 6 0 0 1 6-6h148a6 6 0 0 1 6 6v108a6 6 0 0 1-6 6H946a6 6 0 0 1-6-6z" stroke="#4c535d" fill="#6f7681"/><use xlink:href="#h" transform="matrix(1,0,0,1,945,105) translate(10.925925925925924 59.02777777777778)"/><use xlink:href="#i" transform="matrix(1,0,0,1,945,105) translate(59.01234567901234 59.02777777777778)"/><path d="M850.3 160.5h-49.34v-1h49.34zm72.85 0H889.7v-1h33.45z" stroke="#3a414a" stroke-width=".05" fill="#3a414a"/><path d="M800.98 160.5h-.52v-1h.52z" fill="#3a414a"/><path d="M801 160.53h-.56v-1.06h.56zm-.5-1v.94h.45v-.94z" stroke="#3a414a" stroke-width=".05" fill="#3a414a"/><path d="M937.92 160l-14.27 4.64v-9.28z" fill="#3a414a"/><path d="M939.54 160l-16.4 5.32v-10.64zm-15.4 3.95L936.3 160l-12.15-3.95z" stroke="#3a414a" stroke-width=".05" fill="#3a414a"/><use xlink:href="#j" transform="matrix(1,0,0,1,850.2962962962963,149.33333333333334) translate(0 14.222222222222223)"/><path d="M788.04 299.8l-191.22.04v-1l191.22-.04zm232.46-6.45l-.08 1-.24 1-.4.94-.52.86-.66.77-.78.67-.87.53-.94.4-1 .23-187.55.03v-1l187.43-.04.82-.2.8-.33.73-.45.66-.56.55-.65.45-.74.33-.8.2-.83.07-.88v-72.36h1z" stroke="#3a414a" stroke-width=".05" fill="#3a414a"/><path d="M1020.5 220.98h-1v-.52h1z" fill="#3a414a"/><path d="M1020.52 221h-1.04v-.56h1.04zm-1-.5v.45h.96v-.46z" stroke="#3a414a" stroke-width=".05" fill="#3a414a"/><path d="M596.32 303.97l-14.26-4.63 14.26-4.64z" fill="#3a414a"/><path d="M596.82 304.66l-16.38-5.32 16.38-5.33zm-13.14-5.32l12.14 3.94v-7.9z" stroke="#3a414a" stroke-width=".05" fill="#3a414a"/><use xlink:href="#j" transform="matrix(1,0,0,1,788.0420283958507,288.6684766411851) translate(0 14.222222222222223)"/><path d="M855.2 130.5h-54.26v-1h54.25zm67.93 0h-38.36v-1h38.36z" stroke="#3a414a" stroke-width=".05" fill="#3a414a"/><path d="M800.96 130.5h-.52v-1h.52z" fill="#3a414a"/><path d="M800.98 130.52h-.56v-1.05h.56zm-.5-1v.95h.45v-.95z" stroke="#3a414a" stroke-width=".05" fill="#3a414a"/><path d="M937.9 130l-14.27 4.63v-9.27z" fill="#3a414a"/><path d="M939.52 130l-16.4 5.32v-10.64zm-15.4 3.95L936.3 130l-12.15-3.95z" stroke="#3a414a" stroke-width=".05" fill="#3a414a"/><use xlink:href="#k" transform="matrix(1,0,0,1,855.1895102800199,119.33303261153672) translate(0 14.222222222222223)"/><path d="M938.68 350.47l-121.83.03v-1l121.83-.03zm196.8-207.56l.98.25.94.4.87.52.78.67.66.77.54.88.4.95.24 1 .07 195.7-.08 1-.23.98-.4.95-.53.87-.65.78-.78.66-.87.53-.94.38-1 .25-149.87.03v-1l149.73-.03.82-.2.8-.33.73-.45.66-.56.56-.67.45-.73.33-.8.2-.84.07-.88-.07-195.52-.2-.82-.33-.8-.45-.74-.56-.65-.66-.56-.73-.46-.8-.33-.84-.2-.87-.07h-33.48v-1h33.52z" stroke="#3a414a" stroke-width=".05" fill="#3a414a"/><path d="M1100.96 143.83h-.5v-1h.5z" fill="#3a414a"/><path d="M1101 143.86h-.57v-1.05h.56zm-.52-1v.95h.46v-.94z" stroke="#3a414a" stroke-width=".05" fill="#3a414a"/><path d="M816.35 354.64L802.08 350l14.27-4.64z" fill="#3a414a"/><path d="M816.85 355.32l-16.4-5.32 16.4-5.32zM803.7 350l12.15 3.95v-7.9z" stroke="#3a414a" stroke-width=".05" fill="#3a414a"/><use xlink:href="#l" transform="matrix(1,0,0,1,938.6754716982653,339.3333333333333) translate(0 14.222222222222223)"/><path d="M700 333.46a6 6 0 0 1 6-6h88a6 6 0 0 1 6 6v33.08a6 6 0 0 1-6 6h-88a6 6 0 0 1-6-6z" stroke="#3a414a" fill="#ffd9d9"/><use xlink:href="#m" transform="matrix(1,0,0,1,712,339.45960876485987) translate(-5.703703703703702 17.77777777777778)"/><path d="M616.3 350.5h-19.46v-1h19.45zm82.74 0H663.7v-1h35.34z" stroke="#3a414a" stroke-width=".05" fill="#3a414a"/><path d="M699.54 350.5h-.52v-1h.5z" fill="#3a414a"/><path d="M699.56 350.52H699v-1.04h.56zm-.5-1v.96h.45v-.96z" stroke="#3a414a" stroke-width=".05" fill="#3a414a"/><path d="M596.34 354.64L582.07 350l14.27-4.64z" fill="#3a414a"/><path d="M596.84 355.32l-16.4-5.32 16.4-5.32zM583.7 350l12.14 3.95v-7.9z" stroke="#3a414a" stroke-width=".05" fill="#3a414a"/><use xlink:href="#n" transform="matrix(1,0,0,1,616.2898571721624,339.3333333333333) translate(0 14.222222222222223)"/><path d="M200 106a6 6 0 0 1 6-6h148a6 6 0 0 1 6 6v268a6 6 0 0 1-6 6H206a6 6 0 0 1-6-6z" stroke="#3a414a" fill="#cfe4ff"/><use xlink:href="#o" transform="matrix(1,0,0,1,212,112) translate(2.7592592592592666 121.77777777777777)"/><use xlink:href="#p" transform="matrix(1,0,0,1,212,112) translate(94.11728395061729 121.77777777777777)"/><use xlink:href="#q" transform="matrix(1,0,0,1,212,112) translate(12.388888888888879 148.44444444444443)"/><path d="M324.57 428.88l.2.82.33.8.45.73.56.66.66.55.74.45.8.33.83.2.88.07h31.34v1h-31.37l-1-.08-.98-.24-.96-.4-.87-.52-.77-.66-.67-.78-.53-.87-.4-.94-.23-1-.08-32.17h1zm94.48 4.62v1h-26.1v-1z" stroke="#3a414a" stroke-width=".05" fill="#3a414a"/><path d="M419.55 434.5h-.52v-1h.5z" fill="#3a414a"/><path d="M419.57 434.52H419v-1.05h.57zm-.5-1v.95h.45v-.95z" stroke="#3a414a" stroke-width=".05" fill="#3a414a"/><path d="M328.63 396.33h-9.27l4.63-14.27z" fill="#3a414a"/><path d="M329.32 396.83h-10.65l5.32-16.4zm-9.27-1h7.9l-3.96-12.15z" stroke="#3a414a" stroke-width=".05" fill="#3a414a"/><use xlink:href="#r" transform="matrix(1,0,0,1,361.34160061243244,423.33312307327407) translate(0 14.222222222222223)"/><path d="M304.57 455.55l.2.82.33.8.45.73.56.65.66.57.74.45.8.33.84.2.88.07h41.9v1h-41.94l-1-.08-1-.25-.94-.4-.86-.52-.78-.67-.66-.77-.54-.88-.4-.94-.23-1.02-.07-58.82h1zm114.48 4.62v1h-27.73v-1z" stroke="#3a414a" stroke-width=".05" fill="#3a414a"/><path d="M419.55 461.17h-.5v-1h.5z" fill="#3a414a"/><path d="M419.58 461.2H419v-1.06h.58zm-.52-1v.94h.47v-.95z" stroke="#3a414a" stroke-width=".05" fill="#3a414a"/><path d="M308.63 396.34h-9.27l4.64-14.27z" fill="#3a414a"/><path d="M309.32 396.84h-10.65l5.33-16.4zm-9.27-1h7.9L304 383.7z" stroke="#3a414a" stroke-width=".05" fill="#3a414a"/><use xlink:href="#j" transform="matrix(1,0,0,1,351.9105940853554,450.00010739064214) translate(0 14.222222222222223)"/><path d="M280.57 492.88l.2.82.33.8.45.73.56.66.67.55.73.45.8.33.84.2.88.07h5.25v1h-5.3l-1-.08-.98-.24-.95-.4-.87-.52-.78-.66-.66-.78-.53-.87-.38-.94-.25-1-.07-96.15h1z" stroke="#3a414a" stroke-width=".05" fill="#3a414a"/><path d="M419.56 498.5h-.2v-1h.2z" fill="#3a414a"/><path d="M419.6 498.52h-.23v-.05h.17v-.95h-.17v-.05h.22z" stroke="#3a414a" stroke-width=".05" fill="#3a414a"/><path d="M284.64 396.35h-9.28l4.64-14.27z" fill="#3a414a"/><path d="M285.32 396.85h-10.64l5.32-16.4zm-9.27-1h7.9L280 383.7z" stroke="#3a414a" stroke-width=".05" fill="#3a414a"/><use xlink:href="#s" transform="matrix(1,0,0,1,291.273801947484,487.3331194057694) translate(0 14.222222222222223)"/><use xlink:href="#t" transform="matrix(1,0,0,1,291.273801947484,487.3331194057694) translate(33.580246913580254 14.222222222222223)"/><path d="M1020 406a6 6 0 0 1 6-6h108a6 6 0 0 1 6 6v108a6 6 0 0 1-6 6h-108a6 6 0 0 1-6-6z" stroke="#3a414a" fill="#fc9432"/><use xlink:href="#u" transform="matrix(1,0,0,1,1032,412) translate(7.382716049382722 41.77777777777777)"/><use xlink:href="#v" transform="matrix(1,0,0,1,1032,412) translate(24.543209876543216 64)"/><path d="M785.18 427.83H596.85v-1h188.33zm233.83 0H814.8v-1H1019z" stroke="#3a414a" stroke-width=".05" fill="#3a414a"/><path d="M1019.5 427.83h-.5v-1h.5z" fill="#3a414a"/><path d="M1019.54 427.85h-.56v-1.05h.56zm-.5-1v.95h.45v-.95z" stroke="#3a414a" stroke-width=".05" fill="#3a414a"/><path d="M596.35 431.96l-14.26-4.63 14.25-4.64z" fill="#3a414a"/><path d="M596.85 432.65l-16.38-5.32 16.38-5.33zm-13.14-5.32l12.15 3.95v-7.9z" stroke="#3a414a" stroke-width=".05" fill="#3a414a"/><use xlink:href="#w" transform="matrix(1,0,0,1,785.1772630628,416.6615653226002) translate(0 14.222222222222223)"/><path d="M780.3 460.5H596.86v-1H780.3zm238.74 0H819.7v-1h199.34z" stroke="#3a414a" stroke-width=".05" fill="#3a414a"/><path d="M1019.54 460.5h-.52v-1h.52z" fill="#3a414a"/><path d="M1019.56 460.52h-.56v-1.04h.56zm-.5-1v.96h.45v-.96z" stroke="#3a414a" stroke-width=".05" fill="#3a414a"/><path d="M596.36 464.64L582.1 460l14.26-4.64z" fill="#3a414a"/><path d="M596.86 465.32L580.48 460l16.38-5.32zM583.7 460l12.16 3.95v-7.9z" stroke="#3a414a" stroke-width=".05" fill="#3a414a"/><use xlink:href="#j" transform="matrix(1,0,0,1,780.3033746446432,449.3333333333333) translate(0 14.222222222222223)"/><path d="M625.98 488.26h-29.1v-1h29.1zm353.73 0H650.63v-1h329.1zm39.36 0h-16.68v-1h16.68z" stroke="#3a414a" stroke-width=".05" fill="#3a414a"/><path d="M1019.56 488.26h-.52v-1h.52z" fill="#3a414a"/><path d="M1019.58 488.28h-.56v-1.05h.56zm-.5-1v.95h.45v-.95z" stroke="#3a414a" stroke-width=".05" fill="#3a414a"/><path d="M596.37 492.4l-14.27-4.64 14.27-4.64z" fill="#3a414a"/><path d="M596.87 493.08l-16.38-5.32 16.37-5.33zm-13.15-5.32l12.15 3.94v-7.9z" stroke="#3a414a" stroke-width=".05" fill="#3a414a"/><use xlink:href="#x" transform="matrix(1,0,0,1,979.7111457542975,477.08959218445347) translate(0 14.222222222222223)"/><use xlink:href="#y" transform="matrix(1,0,0,1,625.9819034611295,477.0895921844534) translate(0 14.222222222222223)"/><path d="M200 646a6 6 0 0 1 6-6h88a6 6 0 0 1 6 6v48a6 6 0 0 1-6 6h-88a6 6 0 0 1-6-6z" stroke="#3a414a" fill="#dedeff"/><use xlink:href="#z" transform="matrix(1,0,0,1,212,652) translate(3.925925925925924 20.97222222222222)"/><use xlink:href="#A" transform="matrix(1,0,0,1,212,652) translate(60.22222222222222 20.97222222222222)"/><path d="M340 646a6 6 0 0 1 6-6h88a6 6 0 0 1 6 6v48a6 6 0 0 1-6 6h-88a6 6 0 0 1-6-6z" stroke="#3a414a" fill="#dedeff"/><use xlink:href="#z" transform="matrix(1,0,0,1,352,652) translate(3.925925925925924 20.97222222222222)"/><use xlink:href="#B" transform="matrix(1,0,0,1,352,652) translate(60.22222222222222 20.97222222222222)"/><path d="M600 646a6 6 0 0 1 6-6h88a6 6 0 0 1 6 6v48a6 6 0 0 1-6 6h-88a6 6 0 0 1-6-6z" stroke="#3a414a" fill="#dedeff"/><use xlink:href="#z" transform="matrix(1,0,0,1,612,652) translate(3.925925925925924 20.97222222222222)"/><use xlink:href="#C" transform="matrix(1,0,0,1,612,652) translate(60.22222222222222 20.97222222222222)"/><path d="M740 646a6 6 0 0 1 6-6h88a6 6 0 0 1 6 6v48a6 6 0 0 1-6 6h-88a6 6 0 0 1-6-6z" stroke="#3a414a" fill="#dedeff"/><use xlink:href="#z" transform="matrix(1,0,0,1,752,652.0000000000001) translate(3.4567901234567913 20.97222222222222)"/><use xlink:href="#D" transform="matrix(1,0,0,1,752,652.0000000000001) translate(59.75308641975309 20.97222222222222)"/><path d="M460 646a6 6 0 0 1 6-6h88a6 6 0 0 1 6 6v48a6 6 0 0 1-6 6h-88a6 6 0 0 1-6-6z" stroke="#3a414a" fill="#dedeff"/><use xlink:href="#z" transform="matrix(1,0,0,1,472,652) translate(3.925925925925924 20.97222222222222)"/><use xlink:href="#E" transform="matrix(1,0,0,1,472,652) translate(60.22222222222222 20.97222222222222)"/><path d="M880 646a6 6 0 0 1 6-6h88a6 6 0 0 1 6 6v48a6 6 0 0 1-6 6h-88a6 6 0 0 1-6-6z" stroke="#3a414a" fill="#dedeff"/><use xlink:href="#z" transform="matrix(1,0,0,1,892,652.0000000000002) translate(3.4567901234567913 20.97222222222222)"/><use xlink:href="#F" transform="matrix(1,0,0,1,892,652.0000000000002) translate(59.75308641975309 20.97222222222222)"/><path d="M250.5 639.04h-1v-13.52h1zm152.7-101.87l-148.08.07-.82.2-.8.33-.73.45-.66.56-.55.65-.45.74-.33.8-.2.84-.07.9v61.5h-1v-61.55l.08-1 .24-1 .4-.94.52-.86.66-.77.78-.66.87-.53.94-.4 1-.23 148.2-.07z" stroke="#3a414a" stroke-width=".05" fill="#3a414a"/><path d="M250.5 639.54h-1v-.52h1z" fill="#3a414a"/><path d="M250.53 639.56h-1.06V639h1.06zm-1-.5v.45h.94v-.45z" stroke="#3a414a" stroke-width=".05" fill="#3a414a"/><path d="M417.95 536.67l-14.26 4.63v-9.27z" fill="#3a414a"/><path d="M419.57 536.67L403.2 542v-10.66zm-15.38 3.94l12.13-3.93-12.14-3.95z" stroke="#3a414a" stroke-width=".05" fill="#3a414a"/><use xlink:href="#G" transform="matrix(1,0,0,1,232.22222222222223,604.1880931548875) translate(0 14.222222222222223)"/><path d="M400.43 619.1h-5.3l-.83.2-.8.34-.73.45-.66.55-.55.65-.45.74-.33.8-.2.84-.07.88v14.48h-1v-14.52l.08-1 .24-1 .4-.94.52-.86.66-.78.78-.66.87-.54.94-.4 1-.23h5.43zm29.1-42.22l-.05 31h-1l.06-31z" stroke="#3a414a" stroke-width=".05" fill="#3a414a"/><path d="M390.5 639.54h-1v-.52h1z" fill="#3a414a"/><path d="M390.52 639.56h-1.04V639h1.04zm-1-.5v.45h.96v-.45z" stroke="#3a414a" stroke-width=".05" fill="#3a414a"/><path d="M433.67 576.38h-9.27l4.64-14.26z" fill="#3a414a"/><path d="M434.36 576.88H423.7l5.34-16.38zm-9.27-1h7.9l-3.96-12.15z" stroke="#3a414a" stroke-width=".05" fill="#3a414a"/><use xlink:href="#w" transform="matrix(1,0,0,1,400.42737522717056,607.8699204232234) translate(0 14.222222222222223)"/><path d="M490.57 613.4l.2.84.33.8.45.73.56.65.67.56.73.46.8.33.84.2.88.07 8.98.07 1 .25.95.4.87.53.78.66.66.78.53.86.38.95.24 1 .08 1v14.5h-1v-14.47l-.07-.88-.2-.84-.33-.8-.45-.74-.56-.65-.67-.56-.73-.46-.8-.33-.82-.2-8.9-.06-1-.08-1-.24-.93-.4-.87-.52-.78-.67-.66-.77-.53-.87-.38-.95-.25-1-.02-2.87h1zm-38.02-24.05h-1l-.05-12.48h1z" stroke="#3a414a" stroke-width=".05" fill="#3a414a"/><path d="M510.5 639.54h-1v-.52h1z" fill="#3a414a"/><path d="M510.52 639.56h-1.04V639h1.04zm-1-.5v.45h.96v-.45z" stroke="#3a414a" stroke-width=".05" fill="#3a414a"/><path d="M456.63 576.37h-9.27L452 562.1z" fill="#3a414a"/><path d="M457.32 576.87h-10.65L452 560.5zm-9.27-1h7.9L452 563.72z" stroke="#3a414a" stroke-width=".05" fill="#3a414a"/><use xlink:href="#H" transform="matrix(1,0,0,1,448.96957250040623,589.3451728078686) translate(0 14.222222222222223)"/><path d="M645 599.57l1 .24.95.4.87.53.78.67.66.77.53.87.38.94.24 1 .08 1v33.06h-1V606l-.07-.87-.2-.84-.33-.8-.45-.74-.56-.66-.67-.56-.73-.45-.8-.34-.82-.2h-21.5v-1zm-113.76-4.7l.2.82.33.8.45.72.56.66.66.56.73.45.8.32.84.2.9.07H557v1h-20.35l-1-.1-1-.22-.93-.4-.87-.53-.78-.66-.66-.8-.53-.86-.4-.94-.23-1-.07-18.17h1z" stroke="#3a414a" stroke-width=".05" fill="#3a414a"/><path d="M650.5 639.54h-1v-.52h1z" fill="#3a414a"/><path d="M650.52 639.56h-1.04V639h1.04zm-1-.5v.45h.96v-.45z" stroke="#3a414a" stroke-width=".05" fill="#3a414a"/><path d="M535.3 576.33h-9.27l4.64-14.26z" fill="#3a414a"/><path d="M536 576.83h-10.66l5.33-16.38zm-9.28-1h7.9l-3.95-12.15z" stroke="#3a414a" stroke-width=".05" fill="#3a414a"/><use xlink:href="#I" transform="matrix(1,0,0,1,556.9973589765799,589.3256408176372) translate(0 14.222222222222223)"/><path d="M785 552.24l1 .25.95.38.87.53.78.67.66.78.53.87.38.94.24 1 .08 1v80.38h-1V558.7l-.07-.9-.2-.83-.33-.8-.45-.73-.56-.66-.67-.56-.73-.45-.8-.33-.82-.2-88.08-.03v-1zm-132.64-.05v1l-55.48-.03v-1z" stroke="#3a414a" stroke-width=".05" fill="#3a414a"/><path d="M790.5 639.54h-1v-.52h1z" fill="#3a414a"/><path d="M790.52 639.56h-1.04V639h1.04zm-1-.5v.45h.96v-.45z" stroke="#3a414a" stroke-width=".05" fill="#3a414a"/><path d="M596.38 557.3l-14.26-4.63 14.26-4.64z" fill="#3a414a"/><path d="M596.88 558l-16.38-5.33 16.38-5.32zm-13.14-5.33l12.14 3.95v-7.9z" stroke="#3a414a" stroke-width=".05" fill="#3a414a"/><use xlink:href="#I" transform="matrix(1,0,0,1,652.3593679178927,542.0021146361408) translate(0 14.222222222222223)"/><path d="M925 524.24l1 .25.95.38.87.53.78.67.66.78.53.87.38.94.24 1 .08 1v108.38h-1V530.7l-.07-.9-.2-.83-.33-.8-.45-.73-.56-.66-.67-.56-.73-.45-.8-.33-.82-.2-89.48-.02v-1zm-135.04-.03v1l-193.08-.03v-1z" stroke="#3a414a" stroke-width=".05" fill="#3a414a"/><path d="M930.5 639.54h-1v-.52h1z" fill="#3a414a"/><path d="M930.52 639.56h-1.04V639h1.04zm-1-.5v.45h.96v-.45z" stroke="#3a414a" stroke-width=".05" fill="#3a414a"/><path d="M596.38 529.3l-14.27-4.63 14.28-4.64z" fill="#3a414a"/><path d="M596.88 530l-16.4-5.33 16.4-5.32zm-13.15-5.33l12.15 3.95v-7.9z" stroke="#3a414a" stroke-width=".05" fill="#3a414a"/><use xlink:href="#J" transform="matrix(1,0,0,1,789.9641824504951,514.0024354195024) translate(0 14.222222222222223)"/><path d="M277.84 639h-1v-38.66h1zm125.35-87.17l-120.74.08-.82.2-.8.33-.74.45-.65.56-.56.66-.46.74-.33.8-.2.83-.06.88V579h-1v-21.7l.07-.98.25-1 .4-.94.53-.87.66-.76.77-.67.88-.53.95-.4 1-.23 120.86-.07z" stroke="#3a414a" stroke-width=".05" fill="#3a414a"/><path d="M277.84 639.5h-1v-.5h1z" fill="#3a414a"/><path d="M277.86 639.54h-1.05v-.56h1.06zm-1-.5v.45h.95v-.47z" stroke="#3a414a" stroke-width=".05" fill="#3a414a"/><path d="M417.96 551.33l-14.27 4.64v-9.27z" fill="#3a414a"/><path d="M419.57 551.33l-16.38 5.33V546zm-15.38 3.95l12.14-3.95-12.15-3.94z" stroke="#3a414a" stroke-width=".05" fill="#3a414a"/><use xlink:href="#w" transform="matrix(1,0,0,1,262.5208860387175,579.0073004620886) translate(0 14.222222222222223)"/><path d="M368.5 639.05h-1v-18.7h1zm47.52-71.33l-.07 22.72-.25 1-.4.96-.52.87-.66.77-.78.66-.87.54-.94.4-1 .23-1 .07-36.4.08-.83.2-.8.32-.73.46-.66.56-.55.65-.45.75-.02.06h-1.1l.23-.5.54-.88.66-.77.78-.67.87-.53.94-.4 1-.23 36.5-.08.88-.07.84-.2.8-.33.73-.45.66-.57.57-.65.45-.74.33-.8.2-.82.07-22.6z" stroke="#3a414a" stroke-width=".05" fill="#3a414a"/><path d="M368.5 639.55h-1v-.5h1z" fill="#3a414a"/><path d="M368.53 639.58h-1.05v-.56h1.05zm-1-.5v.45h.95v-.46z" stroke="#3a414a" stroke-width=".05" fill="#3a414a"/><path d="M420.16 567.22h-9.28l4.64-14.27z" fill="#3a414a"/><path d="M420.84 567.72H410.2l5.32-16.4zm-9.27-1h7.9l-3.95-12.15z" stroke="#3a414a" stroke-width=".05" fill="#3a414a"/><use xlink:href="#K" transform="matrix(1,0,0,1,350.22351514927135,599.0082701309286) translate(0 14.222222222222223)"/><path d="M667 589.57l1 .25.96.4.86.52.78.66.66.78.54.87.4.94.22.98.08 1v43.04h-1v-43l-.07-.88-.2-.84-.33-.8-.45-.73-.56-.66-.66-.55-.74-.45-.8-.33-.82-.2-43.5-.03v-1zm-105.1-4.7l.2.83.33.8.45.73.56.66.66.55.74.45.8.33.4.1h-2.42l-.1-.07-.78-.66-.67-.78-.53-.87-.4-.94-.23-1-.07-8.18h1z" stroke="#3a414a" stroke-width=".05" fill="#3a414a"/><path d="M672.5 639.52h-1v-.5h1z" fill="#3a414a"/><path d="M672.53 639.54h-1.05v-.56h1.05zm-1-.5v.45h.95v-.47z" stroke="#3a414a" stroke-width=".05" fill="#3a414a"/><path d="M565.97 576.32h-9.27l4.63-14.27z" fill="#3a414a"/><path d="M566.66 576.82H556l5.33-16.4zm-9.27-1h7.88l-3.95-12.15z" stroke="#3a414a" stroke-width=".05" fill="#3a414a"/><use xlink:href="#w" transform="matrix(1,0,0,1,593.7599782984886,579.3333333333334) translate(0 14.222222222222223)"/><path d="M811 538.9l1.02.25.94.4.87.52.77.67.67.77.53.88.4.95.23 1 .08.98V639h-1v-93.65l-.06-.88-.2-.83-.33-.8-.44-.74-.57-.65-.66-.56-.74-.46-.8-.33-.8-.2h-47.74v-1zm-77.47-.02v1l-136.65-.05v-1z" stroke="#3a414a" stroke-width=".05" fill="#3a414a"/><path d="M816.5 639.5l-1 .02V639h1z" fill="#3a414a"/><path d="M816.53 639.54h-1.05v-.56h1.05zm-1-.5v.45h.95v-.47z" stroke="#3a414a" stroke-width=".05" fill="#3a414a"/><path d="M596.38 543.97l-14.27-4.64 14.28-4.63z" fill="#3a414a"/><path d="M596.88 544.66l-16.38-5.33 16.38-5.32zm-13.15-5.33l12.15 3.95v-7.9z" stroke="#3a414a" stroke-width=".05" fill="#3a414a"/><use xlink:href="#w" transform="matrix(1,0,0,1,733.5270667214497,528.6678245303859) translate(0 14.222222222222223)"/><path d="M943 508.24l1 .24.95.4.87.53.78.67.66.78.53.87.38.94.24 1 .08 1V639h-1V514.7l-.07-.9-.2-.83-.33-.8-.45-.73-.56-.66-.67-.56-.73-.45-.8-.33-.82-.2h-47.84v-1zm-77.6-.02v1l-268.53-.05v-1z" stroke="#3a414a" stroke-width=".05" fill="#3a414a"/><path d="M948.5 639.52h-1v-.5h1z" fill="#3a414a"/><path d="M948.53 639.55h-1.05v-.57h1.05zm-1-.52v.47h.95v-.47z" stroke="#3a414a" stroke-width=".05" fill="#3a414a"/><path d="M596.37 513.3l-14.26-4.63 14.27-4.64z" fill="#3a414a"/><path d="M596.87 514l-16.38-5.33 16.37-5.33zm-13.14-5.33l12.14 3.94v-7.88z" stroke="#3a414a" stroke-width=".05" fill="#3a414a"/><use xlink:href="#w" transform="matrix(1,0,0,1,865.4116150475538,498.00052126340853) translate(0 14.222222222222223)"/><path d="M529.3 639.02h-1v-6.7h1zm-28.73-44.15l.2.82.33.8.45.72.56.66.67.56.73.45.8.32.84.2.88.07 17.78.07 1 .24.96.4.86.53.78.66.66.77.54.87.4.94.22 1 .08 1v5h-1v-4.97l-.07-.87-.2-.84-.33-.8-.45-.74-.56-.66-.66-.56-.74-.45-.8-.34-.82-.2-17.7-.07-1-.1-1-.22-.93-.4-.87-.53-.78-.66-.66-.8-.53-.86-.38-.94-.25-1-.07-18.15h1z" stroke="#3a414a" stroke-width=".05" fill="#3a414a"/><path d="M529.3 639.52h-1v-.5h1z" fill="#3a414a"/><path d="M529.33 639.55h-1.05v-.57h1.05zm-1-.52v.47h.95v-.47z" stroke="#3a414a" stroke-width=".05" fill="#3a414a"/><path d="M504.64 576.35h-9.28l4.64-14.27z" fill="#3a414a"/><path d="M505.32 576.85h-10.64l5.32-16.4zm-9.27-1h7.9L500 563.7z" stroke="#3a414a" stroke-width=".05" fill="#3a414a"/><g><use xlink:href="#w" transform="matrix(1,0,0,1,513.9886203864438,610.9933445347683) translate(0 14.222222222222223)"/></g><path d="M400 106a6 6 0 0 1 6-6h98a6 6 0 0 1 6 6v88a6 6 0 0 1-6 6h-98a6 6 0 0 1-6-6z" stroke="#3a414a" fill="#fff7a1"/><g><use xlink:href="#L" transform="matrix(1,0,0,1,412,112) translate(20.222222222222225 29.65277777777778)"/><use xlink:href="#M" transform="matrix(1,0,0,1,412,112) translate(1.672839506172835 56.31944444444445)"/></g><path d="M442.53 205.04h-1v-4.07h1z" stroke="#3a414a" stroke-width=".05" fill="#3a414a"/><path d="M442.53 201h-1v-.53h1z" fill="#3a414a"/><path d="M442.55 201h-1.05v-.55h1.05zm-1-.5v.46h.95v-.46z" stroke="#3a414a" stroke-width=".05" fill="#3a414a"/><path d="M442.03 237.95l-3.77-11.58h7.53z" fill="#3a414a"/><path d="M442.03 239.57l-4.3-13.2h1.06l3.23 9.96 3.23-9.96h1.05z" stroke="#3a414a" stroke-width=".05" fill="#3a414a"/><g><use xlink:href="#N" transform="matrix(1,0,0,1,424.24927116999953,205.03564366250328) translate(0 14.222222222222223)"/></g><path d="M483.17 203.8h-1v-2.86h1z" stroke="#3a414a" stroke-width=".05" fill="#3a414a"/><path d="M483.17 200.96h-1v-.52h1z" fill="#3a414a"/><path d="M483.2 200.98h-1.05v-.56h1.05zm-1-.5v.45h.95v-.46z" stroke="#3a414a" stroke-width=".05" fill="#3a414a"/><path d="M482.67 237.93l-4.16-12.8h8.33z" fill="#3a414a"/><path d="M482.67 239.55l-4.7-14.43h1.07l3.63 11.2 3.64-11.2h1.06z" stroke="#3a414a" stroke-width=".05" fill="#3a414a"/><g><use xlink:href="#j" transform="matrix(1,0,0,1,462.9682012776519,203.78611553072477) translate(0 14.222222222222223)"/></g><defs><path fill="#3a414a" d="M30-248c87 1 191-15 191 75 0 78-77 80-158 76V0H30v-248zm33 125c57 0 124 11 124-50 0-59-68-47-124-48v98" id="O"/><path fill="#3a414a" d="M24-231v-30h32v30H24zM24 0v-190h32V0H24" id="P"/><g id="a"><use transform="matrix(0.06172839506172839,0,0,0.06172839506172839,0,0)" xlink:href="#O"/><use transform="matrix(0.06172839506172839,0,0,0.06172839506172839,14.814814814814813,0)" xlink:href="#P"/></g><path fill="#3a414a" d="M96-169c-40 0-48 33-48 73s9 75 48 75c24 0 41-14 43-38l32 2c-6 37-31 61-74 61-59 0-76-41-82-99-10-93 101-131 147-64 4 7 5 14 7 22l-32 3c-4-21-16-35-41-35" id="Q"/><path fill="#3a414a" d="M100-194c62-1 85 37 85 99 1 63-27 99-86 99S16-35 15-95c0-66 28-99 85-99zM99-20c44 1 53-31 53-75 0-43-8-75-51-75s-53 32-53 75 10 74 51 75" id="R"/><g id="b"><use transform="matrix(0.06172839506172839,0,0,0.06172839506172839,0,0)" xlink:href="#O"/><use transform="matrix(0.06172839506172839,0,0,0.06172839506172839,14.814814814814813,0)" xlink:href="#P"/><use transform="matrix(0.06172839506172839,0,0,0.06172839506172839,19.691358024691354,0)" xlink:href="#Q"/><use transform="matrix(0.06172839506172839,0,0,0.06172839506172839,30.802469135802465,0)" xlink:href="#R"/></g><path fill="#3a414a" d="M101-251c82-7 93 87 43 132L82-64C71-53 59-42 53-27h129V0H18c2-99 128-94 128-182 0-28-16-43-45-43s-46 15-49 41l-32-3c6-41 34-60 81-64" id="S"/><path fill="#3a414a" d="M101-251c68 0 85 55 85 127S166 4 100 4C33 4 14-52 14-124c0-73 17-127 87-127zm-1 229c47 0 54-49 54-102s-4-102-53-102c-51 0-55 48-55 102 0 53 5 102 54 102" id="T"/><path fill="#3a414a" d="M210-169c-67 3-38 105-44 169h-31v-121c0-29-5-50-35-48C34-165 62-65 56 0H25l-1-190h30c1 10-1 24 2 32 10-44 99-50 107 0 11-21 27-35 58-36 85-2 47 119 55 194h-31v-121c0-29-5-49-35-48" id="U"/><path fill="#3a414a" d="M205 0l-28-72H64L36 0H1l101-248h38L239 0h-34zm-38-99l-47-123c-12 45-31 82-46 123h93" id="V"/><path fill="#3a414a" d="M106-169C34-169 62-67 57 0H25v-261h32l-1 103c12-21 28-36 61-36 89 0 53 116 60 194h-32v-121c2-32-8-49-39-48" id="W"/><g id="c"><use transform="matrix(0.06172839506172839,0,0,0.06172839506172839,0,0)" xlink:href="#S"/><use transform="matrix(0.06172839506172839,0,0,0.06172839506172839,12.345679012345679,0)" xlink:href="#T"/><use transform="matrix(0.06172839506172839,0,0,0.06172839506172839,24.691358024691358,0)" xlink:href="#T"/><use transform="matrix(0.06172839506172839,0,0,0.06172839506172839,37.03703703703704,0)" xlink:href="#T"/><use transform="matrix(0.06172839506172839,0,0,0.06172839506172839,49.382716049382715,0)" xlink:href="#U"/><use transform="matrix(0.06172839506172839,0,0,0.06172839506172839,67.8395061728395,0)" xlink:href="#V"/><use transform="matrix(0.06172839506172839,0,0,0.06172839506172839,82.65432098765432,0)" xlink:href="#W"/></g><path fill="#3a414a" d="M126-127c33 6 58 20 58 59 0 88-139 92-164 29-3-8-5-16-6-25l32-3c6 27 21 44 54 44 32 0 52-15 52-46 0-38-36-46-79-43v-28c39 1 72-4 72-42 0-27-17-43-46-43-28 0-47 15-49 41l-32-3c6-42 35-63 81-64 48-1 79 21 79 65 0 36-21 52-52 59" id="X"/><path fill="#3a414a" d="M33 0v-38h34V0H33" id="Y"/><path fill="#3a414a" d="M64 0c3-98 48-159 88-221H18v-27h164v26C143-157 98-101 97 0H64" id="Z"/><g id="d"><use transform="matrix(0.06172839506172839,0,0,0.06172839506172839,0,0)" xlink:href="#X"/><use transform="matrix(0.06172839506172839,0,0,0.06172839506172839,12.345679012345679,0)" xlink:href="#Y"/><use transform="matrix(0.06172839506172839,0,0,0.06172839506172839,18.51851851851852,0)" xlink:href="#Z"/></g><path fill="#3a414a" d="M137 0h-34L2-248h35l83 218 83-218h36" id="aa"/><use transform="matrix(0.06172839506172839,0,0,0.06172839506172839,0,0)" xlink:href="#aa" id="e"/><path fill="#3a414a" d="M30 0v-248h33v221h125V0H30" id="ab"/><path fill="#3a414a" d="M115-194c55 1 70 41 70 98S169 2 115 4C84 4 66-9 55-30l1 105H24l-1-265h31l2 30c10-21 28-34 59-34zm-8 174c40 0 45-34 45-75s-6-73-45-74c-42 0-51 32-51 76 0 43 10 73 51 73" id="ac"/><g id="f"><use transform="matrix(0.06172839506172839,0,0,0.06172839506172839,0,0)" xlink:href="#ab"/><use transform="matrix(0.06172839506172839,0,0,0.06172839506172839,12.345679012345679,0)" xlink:href="#P"/><use transform="matrix(0.06172839506172839,0,0,0.06172839506172839,17.22222222222222,0)" xlink:href="#ac"/><use transform="matrix(0.06172839506172839,0,0,0.06172839506172839,29.5679012345679,0)" xlink:href="#R"/></g><path fill="#3a414a" d="M160-131c35 5 61 23 61 61C221 17 115-2 30 0v-248c76 3 177-17 177 60 0 33-19 50-47 57zm-97-11c50-1 110 9 110-42 0-47-63-36-110-37v79zm0 115c55-2 124 14 124-45 0-56-70-42-124-44v89" id="ad"/><path fill="#3a414a" d="M127-220V0H93v-220H8v-28h204v28h-85" id="ae"/><g id="g"><use transform="matrix(0.06172839506172839,0,0,0.06172839506172839,0,0)" xlink:href="#ad"/><use transform="matrix(0.06172839506172839,0,0,0.06172839506172839,14.814814814814813,0)" xlink:href="#V"/><use transform="matrix(0.06172839506172839,0,0,0.06172839506172839,27.962962962962962,0)" xlink:href="#ae"/></g><g id="h"><use transform="matrix(0.06172839506172839,0,0,0.06172839506172839,0,0)" xlink:href="#ab"/><use transform="matrix(0.06172839506172839,0,0,0.06172839506172839,12.345679012345679,0)" xlink:href="#P"/><use transform="matrix(0.06172839506172839,0,0,0.06172839506172839,17.22222222222222,0)" xlink:href="#ac"/><use transform="matrix(0.06172839506172839,0,0,0.06172839506172839,29.5679012345679,0)" xlink:href="#R"/></g><path fill="#3a414a" d="M212-179c-10-28-35-45-73-45-59 0-87 40-87 99 0 60 29 101 89 101 43 0 62-24 78-52l27 14C228-24 195 4 139 4 59 4 22-46 18-125c-6-104 99-153 187-111 19 9 31 26 39 46" id="af"/><path fill="#3a414a" d="M141-36C126-15 110 5 73 4 37 3 15-17 15-53c-1-64 63-63 125-63 3-35-9-54-41-54-24 1-41 7-42 31l-33-3c5-37 33-52 76-52 45 0 72 20 72 64v82c-1 20 7 32 28 27v20c-31 9-61-2-59-35zM48-53c0 20 12 33 32 33 41-3 63-29 60-74-43 2-92-5-92 41" id="ag"/><path fill="#3a414a" d="M114-163C36-179 61-72 57 0H25l-1-190h30c1 12-1 29 2 39 6-27 23-49 58-41v29" id="ah"/><path fill="#3a414a" d="M177-190C167-65 218 103 67 71c-23-6-38-20-44-43l32-5c15 47 100 32 89-28v-30C133-14 115 1 83 1 29 1 15-40 15-95c0-56 16-97 71-98 29-1 48 16 59 35 1-10 0-23 2-32h30zM94-22c36 0 50-32 50-73 0-42-14-75-50-75-39 0-46 34-46 75s6 73 46 73" id="ai"/><path fill="#3a414a" d="M100-194c63 0 86 42 84 106H49c0 40 14 67 53 68 26 1 43-12 49-29l28 8c-11 28-37 45-77 45C44 4 14-33 15-96c1-61 26-98 85-98zm52 81c6-60-76-77-97-28-3 7-6 17-6 28h103" id="aj"/><g id="i"><use transform="matrix(0.06172839506172839,0,0,0.06172839506172839,0,0)" xlink:href="#af"/><use transform="matrix(0.06172839506172839,0,0,0.06172839506172839,15.987654320987653,0)" xlink:href="#W"/><use transform="matrix(0.06172839506172839,0,0,0.06172839506172839,28.333333333333332,0)" xlink:href="#ag"/><use transform="matrix(0.06172839506172839,0,0,0.06172839506172839,40.67901234567901,0)" xlink:href="#ah"/><use transform="matrix(0.06172839506172839,0,0,0.06172839506172839,48.02469135802469,0)" xlink:href="#ai"/><use transform="matrix(0.06172839506172839,0,0,0.06172839506172839,60.37037037037037,0)" xlink:href="#aj"/><use transform="matrix(0.06172839506172839,0,0,0.06172839506172839,72.71604938271605,0)" xlink:href="#ah"/></g><path fill="#333" d="M67-125c0 54 23 88 75 88 28 0 53-7 68-21v-34h-60v-39h108v91C232-14 192 4 140 4 58 4 20-42 15-125 8-236 126-280 215-234c19 10 29 26 37 47l-47 15c-11-23-29-39-63-39-53 1-75 33-75 86" id="ak"/><path fill="#333" d="M175 0L67-191c6 58 2 128 3 191H24v-248h59L193-55c-6-58-2-129-3-193h46V0h-61" id="al"/><path fill="#333" d="M24-248c120-7 223 5 221 122C244-46 201 0 124 0H24v-248zM76-40c74 7 117-18 117-86 0-67-45-88-117-82v168" id="am"/><g id="j"><use transform="matrix(0.04938271604938272,0,0,0.04938271604938272,0,0)" xlink:href="#ak"/><use transform="matrix(0.04938271604938272,0,0,0.04938271604938272,13.827160493827162,0)" xlink:href="#al"/><use transform="matrix(0.04938271604938272,0,0,0.04938271604938272,26.617283950617285,0)" xlink:href="#am"/></g><path fill="#333" d="M147 0H94L2-248h55l64 206c17-72 42-137 63-206h54" id="an"/><path fill="#333" d="M24 0v-248h52V0H24" id="ao"/><g id="k"><use transform="matrix(0.04938271604938272,0,0,0.04938271604938272,0,0)" xlink:href="#an"/><use transform="matrix(0.04938271604938272,0,0,0.04938271604938272,11.851851851851853,0)" xlink:href="#ao"/><use transform="matrix(0.04938271604938272,0,0,0.04938271604938272,16.790123456790127,0)" xlink:href="#al"/></g><path fill="#333" d="M182-130c37 4 62 22 62 59C244 23 116-4 24 0v-248c84 5 203-23 205 63 0 31-19 50-47 55zM76-148c40-3 101 13 101-30 0-44-60-28-101-31v61zm0 110c48-3 116 14 116-37 0-48-69-32-116-35v72" id="ap"/><path fill="#333" d="M199 0l-22-63H83L61 0H9l90-248h61L250 0h-51zm-33-102l-36-108c-10 38-24 72-36 108h72" id="aq"/><path fill="#333" d="M136-208V0H84v-208H4v-40h212v40h-80" id="ar"/><g id="l"><use transform="matrix(0.04938271604938272,0,0,0.04938271604938272,0,0)" xlink:href="#an"/><use transform="matrix(0.04938271604938272,0,0,0.04938271604938272,11.851851851851853,0)" xlink:href="#ap"/><use transform="matrix(0.04938271604938272,0,0,0.04938271604938272,24.641975308641978,0)" xlink:href="#aq"/><use transform="matrix(0.04938271604938272,0,0,0.04938271604938272,36.09876543209877,0)" xlink:href="#ar"/></g><path fill="#3a414a" d="M185-189c-5-48-123-54-124 2 14 75 158 14 163 119 3 78-121 87-175 55-17-10-28-26-33-46l33-7c5 56 141 63 141-1 0-78-155-14-162-118-5-82 145-84 179-34 5 7 8 16 11 25" id="as"/><path fill="#3a414a" d="M266 0h-40l-56-210L115 0H75L2-248h35L96-30l15-64 43-154h32l59 218 59-218h35" id="at"/><path fill="#3a414a" d="M33 0v-248h34V0H33" id="au"/><path fill="#3a414a" d="M197 0v-115H63V0H30v-248h33v105h134v-105h34V0h-34" id="av"/><g id="m"><use transform="matrix(0.06172839506172839,0,0,0.06172839506172839,0,0)" xlink:href="#as"/><use transform="matrix(0.06172839506172839,0,0,0.06172839506172839,14.814814814814813,0)" xlink:href="#at"/><use transform="matrix(0.06172839506172839,0,0,0.06172839506172839,35.74074074074073,0)" xlink:href="#au"/><use transform="matrix(0.06172839506172839,0,0,0.06172839506172839,41.913580246913575,0)" xlink:href="#ae"/><use transform="matrix(0.06172839506172839,0,0,0.06172839506172839,55.432098765432094,0)" xlink:href="#af"/><use transform="matrix(0.06172839506172839,0,0,0.06172839506172839,71.41975308641975,0)" xlink:href="#av"/></g><path fill="#333" d="M169-182c-1-43-94-46-97-3 18 66 151 10 154 114 3 95-165 93-204 36-6-8-10-19-12-30l50-8c3 46 112 56 116 5-17-69-150-10-154-114-4-87 153-88 188-35 5 8 8 18 10 28" id="aw"/><path fill="#333" d="M146-102V0H94v-102L6-248h54l60 105 60-105h54" id="ax"/><g id="n"><use transform="matrix(0.04938271604938272,0,0,0.04938271604938272,0,0)" xlink:href="#an"/><use transform="matrix(0.04938271604938272,0,0,0.04938271604938272,11.851851851851853,0)" xlink:href="#aw"/><use transform="matrix(0.04938271604938272,0,0,0.04938271604938272,23.703703703703706,0)" xlink:href="#ax"/><use transform="matrix(0.04938271604938272,0,0,0.04938271604938272,35.55555555555556,0)" xlink:href="#aw"/></g><path fill="#3a414a" d="M155-56V0h-30v-56H8v-25l114-167h33v167h35v25h-35zm-30-156c-27 46-58 90-88 131h88v-131" id="ay"/><path fill="#3a414a" d="M141 0L90-78 38 0H4l68-98-65-92h35l48 74 47-74h35l-64 92 68 98h-35" id="az"/><g id="o"><use transform="matrix(0.06172839506172839,0,0,0.06172839506172839,0,0)" xlink:href="#S"/><use transform="matrix(0.06172839506172839,0,0,0.06172839506172839,12.345679012345679,0)" xlink:href="#ay"/><use transform="matrix(0.06172839506172839,0,0,0.06172839506172839,24.691358024691358,0)" xlink:href="#T"/><use transform="matrix(0.06172839506172839,0,0,0.06172839506172839,37.03703703703704,0)" xlink:href="#az"/><use transform="matrix(0.06172839506172839,0,0,0.06172839506172839,48.14814814814815,0)" xlink:href="#X"/><use transform="matrix(0.06172839506172839,0,0,0.06172839506172839,60.49382716049383,0)" xlink:href="#S"/><use transform="matrix(0.06172839506172839,0,0,0.06172839506172839,72.8395061728395,0)" xlink:href="#T"/></g><path fill="#3a414a" d="M63-220v92h138v28H63V0H30v-248h175v28H63" id="aA"/><g id="p"><use transform="matrix(0.06172839506172839,0,0,0.06172839506172839,0,0)" xlink:href="#ae"/><use transform="matrix(0.06172839506172839,0,0,0.06172839506172839,13.518518518518517,0)" xlink:href="#aA"/><use transform="matrix(0.06172839506172839,0,0,0.06172839506172839,27.037037037037035,0)" xlink:href="#ae"/></g><path fill="#3a414a" d="M206 0h-36l-40-164L89 0H53L-1-190h32L70-26l43-164h34l41 164 42-164h31" id="aB"/><path fill="#3a414a" d="M0 4l72-265h28L28 4H0" id="aC"/><path fill="#3a414a" d="M99-251c64 0 84 50 84 122C183-37 130 33 47-8c-14-7-20-23-25-40l30-5c6 39 69 39 84 7 9-19 16-44 16-74-10 22-31 35-62 35-49 0-73-33-73-83 0-54 28-83 82-83zm-1 141c31-1 51-18 51-49 0-36-14-67-51-67-34 0-49 23-49 58 0 34 15 58 49 58" id="aD"/><g id="q"><use transform="matrix(0.06172839506172839,0,0,0.06172839506172839,0,0)" xlink:href="#aB"/><use transform="matrix(0.06172839506172839,0,0,0.06172839506172839,15.987654320987653,0)" xlink:href="#aC"/><use transform="matrix(0.06172839506172839,0,0,0.06172839506172839,22.160493827160494,0)" xlink:href="#au"/><use transform="matrix(0.06172839506172839,0,0,0.06172839506172839,28.333333333333332,0)" xlink:href="#ab"/><use transform="matrix(0.06172839506172839,0,0,0.06172839506172839,40.67901234567901,0)" xlink:href="#au"/><use transform="matrix(0.06172839506172839,0,0,0.06172839506172839,46.851851851851855,0)" xlink:href="#aD"/><use transform="matrix(0.06172839506172839,0,0,0.06172839506172839,59.19753086419753,0)" xlink:href="#X"/><use transform="matrix(0.06172839506172839,0,0,0.06172839506172839,71.54320987654322,0)" xlink:href="#ay"/><use transform="matrix(0.06172839506172839,0,0,0.06172839506172839,83.8888888888889,0)" xlink:href="#T"/><use transform="matrix(0.06172839506172839,0,0,0.06172839506172839,96.23456790123458,0)" xlink:href="#af"/></g><path fill="#333" d="M128-127c34 4 56 21 59 58 7 91-148 94-172 28-4-9-6-17-7-26l51-5c1 24 16 35 40 36 23 0 39-12 38-36-1-31-31-36-65-34v-40c32 2 59-3 59-33 0-20-13-33-34-33s-33 13-35 32l-50-3c6-44 37-68 86-68 50 0 83 20 83 66 0 35-22 52-53 58" id="aE"/><g id="r"><use transform="matrix(0.04938271604938272,0,0,0.04938271604938272,0,0)" xlink:href="#aE"/><use transform="matrix(0.04938271604938272,0,0,0.04938271604938272,9.876543209876544,0)" xlink:href="#an"/><use transform="matrix(0.04938271604938272,0,0,0.04938271604938272,21.7283950617284,0)" xlink:href="#aE"/></g><path fill="#333" d="M24-248c93 1 206-16 204 79-1 75-69 88-152 82V0H24v-248zm52 121c47 0 100 7 100-41 0-47-54-39-100-39v80" id="aF"/><g id="s"><use transform="matrix(0.04938271604938272,0,0,0.04938271604938272,0,0)" xlink:href="#aw"/><use transform="matrix(0.04938271604938272,0,0,0.04938271604938272,11.851851851851853,0)" xlink:href="#aF"/><use transform="matrix(0.04938271604938272,0,0,0.04938271604938272,23.703703703703706,0)" xlink:href="#ao"/></g><path fill="#333" d="M190-63c-7 42-38 67-86 67-59 0-84-38-90-98-12-110 154-137 174-36l-49 2c-2-19-15-32-35-32-30 0-35 28-38 64-6 74 65 87 74 30" id="aG"/><path fill="#333" d="M110-194c64 0 96 36 96 99 0 64-35 99-97 99-61 0-95-36-95-99 0-62 34-99 96-99zm-1 164c35 0 45-28 45-65 0-40-10-65-43-65-34 0-45 26-45 65 0 36 10 65 43 65" id="aH"/><path fill="#333" d="M135-194c87-1 58 113 63 194h-50c-7-57 23-157-34-157-59 0-34 97-39 157H25l-1-190h47c2 12-1 28 3 38 12-26 28-41 61-42" id="aI"/><path fill="#333" d="M185-48c-13 30-37 53-82 52C43 2 14-33 14-96s30-98 90-98c62 0 83 45 84 108H66c0 31 8 55 39 56 18 0 30-7 34-22zm-45-69c5-46-57-63-70-21-2 6-4 13-4 21h74" id="aJ"/><path fill="#333" d="M115-3C79 11 28 4 28-45v-112H4v-33h27l15-45h31v45h36v33H77v99c-1 23 16 31 38 25v30" id="aK"/><path fill="#333" d="M25-224v-37h50v37H25zM25 0v-190h50V0H25" id="aL"/><g id="t"><use transform="matrix(0.04938271604938272,0,0,0.04938271604938272,0,0)" xlink:href="#aG"/><use transform="matrix(0.04938271604938272,0,0,0.04938271604938272,9.876543209876544,0)" xlink:href="#aH"/><use transform="matrix(0.04938271604938272,0,0,0.04938271604938272,20.69135802469136,0)" xlink:href="#aI"/><use transform="matrix(0.04938271604938272,0,0,0.04938271604938272,31.506172839506174,0)" xlink:href="#aI"/><use transform="matrix(0.04938271604938272,0,0,0.04938271604938272,42.320987654320994,0)" xlink:href="#aJ"/><use transform="matrix(0.04938271604938272,0,0,0.04938271604938272,52.19753086419754,0)" xlink:href="#aG"/><use transform="matrix(0.04938271604938272,0,0,0.04938271604938272,62.074074074074076,0)" xlink:href="#aK"/><use transform="matrix(0.04938271604938272,0,0,0.04938271604938272,67.95061728395062,0)" xlink:href="#aL"/><use transform="matrix(0.04938271604938272,0,0,0.04938271604938272,72.88888888888889,0)" xlink:href="#aH"/><use transform="matrix(0.04938271604938272,0,0,0.04938271604938272,83.7037037037037,0)" xlink:href="#aI"/></g><path d="M232-93c-1 65-40 97-104 97C67 4 28-28 28-90v-158h33c8 89-33 224 67 224 102 0 64-133 71-224h33v155" id="aM"/><path d="M24 0v-261h32V0H24" id="aN"/><path d="M59-47c-2 24 18 29 38 22v24C64 9 27 4 27-40v-127H5v-23h24l9-43h21v43h35v23H59v120" id="aO"/><path d="M24-231v-30h32v30H24zM24 0v-190h32V0H24" id="aP"/><path d="M210-169c-67 3-38 105-44 169h-31v-121c0-29-5-50-35-48C34-165 62-65 56 0H25l-1-190h30c1 10-1 24 2 32 10-44 99-50 107 0 11-21 27-35 58-36 85-2 47 119 55 194h-31v-121c0-29-5-49-35-48" id="aQ"/><path d="M141-36C126-15 110 5 73 4 37 3 15-17 15-53c-1-64 63-63 125-63 3-35-9-54-41-54-24 1-41 7-42 31l-33-3c5-37 33-52 76-52 45 0 72 20 72 64v82c-1 20 7 32 28 27v20c-31 9-61-2-59-35zM48-53c0 20 12 33 32 33 41-3 63-29 60-74-43 2-92-5-92 41" id="aR"/><path d="M100-194c63 0 86 42 84 106H49c0 40 14 67 53 68 26 1 43-12 49-29l28 8c-11 28-37 45-77 45C44 4 14-33 15-96c1-61 26-98 85-98zm52 81c6-60-76-77-97-28-3 7-6 17-6 28h103" id="aS"/><g id="u"><use transform="matrix(0.061728395061728385,0,0,0.061728395061728385,0,0)" xlink:href="#aM"/><use transform="matrix(0.061728395061728385,0,0,0.061728395061728385,15.987654320987652,0)" xlink:href="#aN"/><use transform="matrix(0.061728395061728385,0,0,0.061728395061728385,20.864197530864196,0)" xlink:href="#aO"/><use transform="matrix(0.061728395061728385,0,0,0.061728395061728385,27.037037037037035,0)" xlink:href="#aP"/><use transform="matrix(0.061728395061728385,0,0,0.061728395061728385,31.913580246913575,0)" xlink:href="#aQ"/><use transform="matrix(0.061728395061728385,0,0,0.061728395061728385,50.37037037037037,0)" xlink:href="#aR"/><use transform="matrix(0.061728395061728385,0,0,0.061728395061728385,62.716049382716044,0)" xlink:href="#aO"/><use transform="matrix(0.061728395061728385,0,0,0.061728395061728385,68.88888888888889,0)" xlink:href="#aS"/></g><path d="M143 4C61 4 22-44 18-125c-5-107 100-154 193-111 17 8 29 25 37 43l-32 9c-13-25-37-40-76-40-61 0-88 39-88 99 0 61 29 100 91 101 35 0 62-11 79-27v-45h-74v-28h105v86C228-13 192 4 143 4" id="aT"/><path d="M30-248c87 1 191-15 191 75 0 78-77 80-158 76V0H30v-248zm33 125c57 0 124 11 124-50 0-59-68-47-124-48v98" id="aU"/><path d="M185-189c-5-48-123-54-124 2 14 75 158 14 163 119 3 78-121 87-175 55-17-10-28-26-33-46l33-7c5 56 141 63 141-1 0-78-155-14-162-118-5-82 145-84 179-34 5 7 8 16 11 25" id="aV"/><g id="v"><use transform="matrix(0.061728395061728385,0,0,0.061728395061728385,0,0)" xlink:href="#aT"/><use transform="matrix(0.061728395061728385,0,0,0.061728395061728385,17.28395061728395,0)" xlink:href="#aU"/><use transform="matrix(0.061728395061728385,0,0,0.061728395061728385,32.09876543209876,0)" xlink:href="#aV"/></g><path fill="#333" d="M128 0H69L1-190h53L99-40l48-150h52" id="aW"/><g id="w"><use transform="matrix(0.04938271604938272,0,0,0.04938271604938272,0,0)" xlink:href="#aE"/><use transform="matrix(0.04938271604938272,0,0,0.04938271604938272,9.876543209876544,0)" xlink:href="#aW"/><use transform="matrix(0.04938271604938272,0,0,0.04938271604938272,19.75308641975309,0)" xlink:href="#aE"/></g><path fill="#333" d="M182 0l-62-99L58 0H3l86-130-79-118h55l55 88 55-88h55l-75 118L237 0h-55" id="aX"/><g id="x"><use transform="matrix(0.04938271604938272,0,0,0.04938271604938272,0,0)" xlink:href="#ar"/><use transform="matrix(0.04938271604938272,0,0,0.04938271604938272,10.814814814814815,0)" xlink:href="#aX"/></g><path fill="#333" d="M240-174c0 40-23 61-54 70L253 0h-59l-57-94H76V0H24v-248c93 4 217-23 216 74zM76-134c48-2 112 12 112-38 0-48-66-32-112-35v73" id="aY"/><g id="y"><use transform="matrix(0.04938271604938272,0,0,0.04938271604938272,0,0)" xlink:href="#aY"/><use transform="matrix(0.04938271604938272,0,0,0.04938271604938272,12.790123456790125,0)" xlink:href="#aX"/></g><path fill="#3a414a" d="M84 4C-5 8 30-112 23-190h32v120c0 31 7 50 39 49 72-2 45-101 50-169h31l1 190h-30c-1-10 1-25-2-33-11 22-28 36-60 37" id="aZ"/><path fill="#3a414a" d="M59-47c-2 24 18 29 38 22v24C64 9 27 4 27-40v-127H5v-23h24l9-43h21v43h35v23H59v120" id="ba"/><path fill="#3a414a" d="M117-194c89-4 53 116 60 194h-32v-121c0-31-8-49-39-48C34-167 62-67 57 0H25l-1-190h30c1 10-1 24 2 32 11-22 29-35 61-36" id="bb"/><g id="z"><use transform="matrix(0.049382716049382706,0,0,0.049382716049382706,0,0)" xlink:href="#ad"/><use transform="matrix(0.049382716049382706,0,0,0.049382716049382706,11.85185185185185,0)" xlink:href="#aZ"/><use transform="matrix(0.049382716049382706,0,0,0.049382716049382706,21.728395061728392,0)" xlink:href="#ba"/><use transform="matrix(0.049382716049382706,0,0,0.049382716049382706,26.666666666666668,0)" xlink:href="#ba"/><use transform="matrix(0.049382716049382706,0,0,0.049382716049382706,31.604938271604937,0)" xlink:href="#R"/><use transform="matrix(0.049382716049382706,0,0,0.049382716049382706,41.48148148148148,0)" xlink:href="#bb"/></g><path fill="#3a414a" d="M195 0l-74-108L45 0H8l94-129-87-119h37l69 98 67-98h37l-84 118L233 0h-38" id="bc"/><use transform="matrix(0.049382716049382706,0,0,0.049382716049382706,0,0)" xlink:href="#bc" id="A"/><path fill="#3a414a" d="M137-103V0h-34v-103L8-248h37l75 118 75-118h37" id="bd"/><use transform="matrix(0.049382716049382706,0,0,0.049382716049382706,0,0)" xlink:href="#bd" id="B"/><use transform="matrix(0.049382716049382706,0,0,0.049382716049382706,0,0)" xlink:href="#ad" id="C"/><use transform="matrix(0.049382716049382706,0,0,0.049382716049382706,0,0)" xlink:href="#af" id="D"/><use transform="matrix(0.049382716049382706,0,0,0.049382716049382706,0,0)" xlink:href="#V" id="E"/><path fill="#3a414a" d="M30-248c118-7 216 8 213 122C240-48 200 0 122 0H30v-248zM63-27c89 8 146-16 146-99s-60-101-146-95v194" id="be"/><use transform="matrix(0.049382716049382706,0,0,0.049382716049382706,0,0)" xlink:href="#be" id="F"/><path fill="#333" d="M138-131c27 9 52 24 51 61 0 53-36 74-89 74S11-19 11-69c0-35 22-54 51-61-78-25-46-121 38-121 51 0 83 19 83 66 0 30-18 49-45 54zm-38-16c24 0 32-13 32-36 1-23-11-34-32-34-22 0-33 12-32 34 0 22 9 36 32 36zm1 116c27 0 37-17 37-43 0-25-13-39-39-39-24 0-37 15-37 40 0 27 11 42 39 42" id="bf"/><g id="G"><use transform="matrix(0.04938271604938272,0,0,0.04938271604938272,0,0)" xlink:href="#ak"/><use transform="matrix(0.04938271604938272,0,0,0.04938271604938272,13.827160493827162,0)" xlink:href="#aF"/><use transform="matrix(0.04938271604938272,0,0,0.04938271604938272,25.679012345679016,0)" xlink:href="#bf"/></g><path fill="#333" d="M23 0v-37h61v-169l-59 37v-38l62-41h46v211h57V0H23" id="bg"/><path fill="#333" d="M101-251c68 0 84 54 84 127C185-50 166 4 99 4S15-52 14-124c-1-75 17-127 87-127zm-1 216c37-5 36-46 36-89s4-89-36-89c-39 0-36 45-36 89 0 43-3 85 36 89" id="bh"/><g id="H"><use transform="matrix(0.04938271604938272,0,0,0.04938271604938272,0,0)" xlink:href="#ak"/><use transform="matrix(0.04938271604938272,0,0,0.04938271604938272,13.827160493827162,0)" xlink:href="#aF"/><use transform="matrix(0.04938271604938272,0,0,0.04938271604938272,25.679012345679016,0)" xlink:href="#bg"/><use transform="matrix(0.04938271604938272,0,0,0.04938271604938272,35.55555555555556,0)" xlink:href="#bh"/></g><g id="I"><use transform="matrix(0.04938271604938272,0,0,0.04938271604938272,0,0)" xlink:href="#ak"/><use transform="matrix(0.04938271604938272,0,0,0.04938271604938272,13.827160493827162,0)" xlink:href="#aF"/><use transform="matrix(0.04938271604938272,0,0,0.04938271604938272,25.679012345679016,0)" xlink:href="#bg"/><use transform="matrix(0.04938271604938272,0,0,0.04938271604938272,34.5679012345679,0)" xlink:href="#bg"/></g><path fill="#333" d="M182-182c0 78-84 86-111 141h115V0H12c-6-101 99-100 120-180 1-22-12-31-33-32-23 0-32 14-35 34l-49-3c5-45 32-70 84-70 51 0 83 22 83 69" id="bi"/><g id="J"><use transform="matrix(0.04938271604938272,0,0,0.04938271604938272,0,0)" xlink:href="#ak"/><use transform="matrix(0.04938271604938272,0,0,0.04938271604938272,13.827160493827162,0)" xlink:href="#aF"/><use transform="matrix(0.04938271604938272,0,0,0.04938271604938272,25.679012345679016,0)" xlink:href="#bg"/><use transform="matrix(0.04938271604938272,0,0,0.04938271604938272,35.55555555555556,0)" xlink:href="#bi"/></g><path fill="#333" d="M99-251c69 0 84 53 88 123 5 99-61 162-144 118-15-8-21-25-26-45l46-6c4 31 50 33 63 7 7-15 12-36 12-60-9 18-29 28-54 28-48 0-72-32-72-82 0-55 31-83 87-83zm-1 128c24 0 37-16 37-39 0-27-10-51-37-51-25 0-35 19-35 45 0 25 10 45 35 45" id="bj"/><g id="K"><use transform="matrix(0.04938271604938272,0,0,0.04938271604938272,0,0)" xlink:href="#ak"/><use transform="matrix(0.04938271604938272,0,0,0.04938271604938272,13.827160493827162,0)" xlink:href="#aF"/><use transform="matrix(0.04938271604938272,0,0,0.04938271604938272,25.679012345679016,0)" xlink:href="#bj"/></g><g id="L"><use transform="matrix(0.06172839506172839,0,0,0.06172839506172839,0,0)" xlink:href="#af"/><use transform="matrix(0.06172839506172839,0,0,0.06172839506172839,15.987654320987653,0)" xlink:href="#R"/><use transform="matrix(0.06172839506172839,0,0,0.06172839506172839,28.333333333333332,0)" xlink:href="#P"/><use transform="matrix(0.06172839506172839,0,0,0.06172839506172839,33.20987654320987,0)" xlink:href="#bb"/></g><path fill="#3a414a" d="M143 0L79-87 56-68V0H24v-261h32v163l83-92h37l-77 82L181 0h-38" id="bk"/><g id="M"><use transform="matrix(0.06172839506172839,0,0,0.06172839506172839,0,0)" xlink:href="#as"/><use transform="matrix(0.06172839506172839,0,0,0.06172839506172839,14.814814814814813,0)" xlink:href="#ac"/><use transform="matrix(0.06172839506172839,0,0,0.06172839506172839,27.160493827160494,0)" xlink:href="#aj"/><use transform="matrix(0.06172839506172839,0,0,0.06172839506172839,39.50617283950617,0)" xlink:href="#ag"/><use transform="matrix(0.06172839506172839,0,0,0.06172839506172839,51.85185185185185,0)" xlink:href="#bk"/><use transform="matrix(0.06172839506172839,0,0,0.06172839506172839,62.96296296296296,0)" xlink:href="#aj"/><use transform="matrix(0.06172839506172839,0,0,0.06172839506172839,75.30864197530865,0)" xlink:href="#ah"/></g><g id="N"><use transform="matrix(0.04938271604938272,0,0,0.04938271604938272,0,0)" xlink:href="#ak"/><use transform="matrix(0.04938271604938272,0,0,0.04938271604938272,13.827160493827162,0)" xlink:href="#aF"/><use transform="matrix(0.04938271604938272,0,0,0.04938271604938272,25.679012345679016,0)" xlink:href="#bi"/></g></defs></g></svg>